<svg width="520" height="276" version="1.1" xmlns="http://www.w3.org/2000/svg" desc="Created with imagetracer.js version 1.2.6" ><path fill="rgb(157,159,159)" stroke="rgb(157,159,159)" stroke-width="1" opacity="1" d="M 340.5 24 L 341 28.5 L 340 28.5 L 339.5 26 L 338 26.5 L 340.5 24 Z " /><path fill="rgb(157,159,159)" stroke="rgb(157,159,159)" stroke-width="1" opacity="1" d="M 481.5 24 L 482 28.5 L 481 28.5 L 480.5 26 L 479 26.5 L 481.5 24 Z " /><path fill="rgb(157,159,159)" stroke="rgb(157,159,159)" stroke-width="1" opacity="1" d="M 464.5 25 L 463.5 27 L 464.5 25 Z " /><path fill="rgb(157,159,159)" stroke="rgb(157,159,159)" stroke-width="1" opacity="1" d="M 317.5 27 L 316.5 29 L 317.5 27 Z " /><path fill="rgb(157,159,159)" stroke="rgb(157,159,159)" stroke-width="1" opacity="1" d="M 101.5 28 L 102 55.5 L 101 55.5 L 101.5 28 Z " /><path fill="rgb(157,159,159)" stroke="rgb(157,159,159)" stroke-width="1" opacity="1" d="M 167.5 28 L 168 55.5 L 167 55.5 L 167.5 28 Z " /><path fill="rgb(157,159,159)" stroke="rgb(157,159,159)" stroke-width="1" opacity="1" d="M 184.5 28 L 185 48 L 183 47.5 L 184 46.5 L 184.5 28 Z " /><path fill="rgb(157,159,159)" stroke="rgb(157,159,159)" stroke-width="1" opacity="1" d="M 188.5 28 L 189 55.5 L 188 55.5 L 188.5 28 Z " /><path fill="rgb(157,159,159)" stroke="rgb(157,159,159)" stroke-width="1" opacity="1" d="M 320.5 28 L 321.5 30 L 320.5 28 Z " /><path fill="rgb(157,159,159)" stroke="rgb(157,159,159)" stroke-width="1" opacity="1" d="M 39.5 29 L 37.5 32 L 39.5 29 Z " /><path fill="rgb(157,159,159)" stroke="rgb(157,159,159)" stroke-width="1" opacity="1" d="M 118.5 30 L 119.5 32 L 118.5 30 Z " /><path fill="rgb(157,159,159)" stroke="rgb(157,159,159)" stroke-width="1" opacity="1" d="M 172.5 30 L 173.5 32 L 172.5 30 Z " /><path fill="rgb(157,159,159)" stroke="rgb(157,159,159)" stroke-width="1" opacity="1" d="M 471.5 30 L 470.5 32 L 471.5 30 Z " /><path fill="rgb(157,159,159)" stroke="rgb(157,159,159)" stroke-width="1" opacity="1" d="M 105.5 32 L 106 51.5 L 105 51.5 L 105.5 32 Z " /><path fill="rgb(157,159,159)" stroke="rgb(157,159,159)" stroke-width="1" opacity="1" d="M 114.5 32 L 116.5 35 L 114.5 32 Z " /><path fill="rgb(157,159,159)" stroke="rgb(157,159,159)" stroke-width="1" opacity="1" d="M 174.5 33 L 175.5 35 L 174.5 33 Z " /><path fill="rgb(157,159,159)" stroke="rgb(157,159,159)" stroke-width="1" opacity="1" d="M 328.5 33 L 327.5 35 L 328.5 33 Z " /><path fill="rgb(157,159,159)" stroke="rgb(157,159,159)" stroke-width="1" opacity="1" d="M 352.5 33 L 353 35.5 L 352 35.5 L 352.5 33 Z " /><path fill="rgb(157,159,159)" stroke="rgb(157,159,159)" stroke-width="1" opacity="1" d="M 143.5 34 Q 145.8 33.3 145 35.5 L 143.5 34 Z " /><path fill="rgb(157,159,159)" stroke="rgb(157,159,159)" stroke-width="1" opacity="1" d="M 341.5 34 L 342 45.5 L 341 45.5 L 341.5 34 Z " /><path fill="rgb(157,159,159)" stroke="rgb(157,159,159)" stroke-width="1" opacity="1" d="M 468.5 34 L 469 36.5 L 468 36.5 L 468.5 34 Z " /><path fill="rgb(157,159,159)" stroke="rgb(157,159,159)" stroke-width="1" opacity="1" d="M 482.5 34 L 483 45.5 L 482 45.5 L 482.5 34 Z " /><path fill="rgb(157,159,159)" stroke="rgb(157,159,159)" stroke-width="1" opacity="1" d="M 171.5 36 L 172 55.5 L 171 55.5 L 171.5 36 Z " /><path fill="rgb(157,159,159)" stroke="rgb(157,159,159)" stroke-width="1" opacity="1" d="M 337.5 36 L 338 40.5 L 337 40.5 L 337.5 36 Z " /><path fill="rgb(157,159,159)" stroke="rgb(157,159,159)" stroke-width="1" opacity="1" d="M 478.5 36 L 479 40.5 L 478 40.5 L 478.5 36 Z " /><path fill="rgb(157,159,159)" stroke="rgb(157,159,159)" stroke-width="1" opacity="1" d="M 40.5 37 L 41.5 39 L 40.5 37 Z " /><path fill="rgb(157,159,159)" stroke="rgb(157,159,159)" stroke-width="1" opacity="1" d="M 121.5 37 L 122 46.5 L 121 46.5 L 121.5 37 Z " /><path fill="rgb(157,159,159)" stroke="rgb(157,159,159)" stroke-width="1" opacity="1" d="M 377.5 37 L 376.5 39 L 377.5 37 Z " /><path fill="rgb(157,159,159)" stroke="rgb(157,159,159)" stroke-width="1" opacity="1" d="M 437.5 37 L 438 39.5 L 436 38.5 L 437.5 37 Z " /><path fill="rgb(157,159,159)" stroke="rgb(157,159,159)" stroke-width="1" opacity="1" d="M 455.5 37 L 456 43.5 L 455 43.5 L 455.5 37 Z " /><path fill="rgb(157,159,159)" stroke="rgb(157,159,159)" stroke-width="1" opacity="1" d="M 36.5 38 L 40 42.5 L 36 39.5 L 36.5 38 Z " /><path fill="rgb(157,159,159)" stroke="rgb(157,159,159)" stroke-width="1" opacity="1" d="M 448.5 38 L 449 40.5 L 447 39.5 L 448.5 38 Z " /><path fill="rgb(157,159,159)" stroke="rgb(157,159,159)" stroke-width="1" opacity="1" d="M 312.5 39 L 313 41 L 311 40.5 L 312.5 39 Z " /><path fill="rgb(157,159,159)" stroke="rgb(157,159,159)" stroke-width="1" opacity="1" d="M 378.5 39 L 382 41.5 L 381.5 44 L 379.5 40 L 378.5 39 Z " /><path fill="rgb(157,159,159)" stroke="rgb(157,159,159)" stroke-width="1" opacity="1" d="M 453.5 39 L 452.5 41 L 453.5 39 Z " /><path fill="rgb(157,159,159)" stroke="rgb(157,159,159)" stroke-width="1" opacity="1" d="M 331.5 40 L 332 45.5 L 331 45.5 L 331.5 40 Z " /><path fill="rgb(157,159,159)" stroke="rgb(157,159,159)" stroke-width="1" opacity="1" d="M 360.5 40 L 361 48.5 L 360 48.5 L 360.5 40 Z " /><path fill="rgb(157,159,159)" stroke="rgb(157,159,159)" stroke-width="1" opacity="1" d="M 375.5 40 L 376.5 42 L 375.5 40 Z " /><path fill="rgb(157,159,159)" stroke="rgb(157,159,159)" stroke-width="1" opacity="1" d="M 469.5 40 L 470 45.5 L 469 45.5 L 469.5 40 Z " /><path fill="rgb(157,159,159)" stroke="rgb(157,159,159)" stroke-width="1" opacity="1" d="M 356.5 41 L 358 43.5 L 357 43.5 L 356.5 41 Z " /><path fill="rgb(157,159,159)" stroke="rgb(157,159,159)" stroke-width="1" opacity="1" d="M 466.5 41 L 467 44.5 L 466 44.5 L 466.5 41 Z " /><path fill="rgb(157,159,159)" stroke="rgb(157,159,159)" stroke-width="1" opacity="1" d="M 310.5 42 L 311.5 44 L 310.5 42 Z " /><path fill="rgb(157,159,159)" stroke="rgb(157,159,159)" stroke-width="1" opacity="1" d="M 176.5 43 L 177.5 45 L 176.5 43 Z " /><path fill="rgb(157,159,159)" stroke="rgb(157,159,159)" stroke-width="1" opacity="1" d="M 181.5 44 L 182.5 46 L 181.5 44 Z " /><path fill="rgb(157,159,159)" stroke="rgb(157,159,159)" stroke-width="1" opacity="1" d="M 338.5 45 L 339.5 49 L 340.5 47 L 341 48.5 L 339.5 51 Q 337 49 338.5 45 Z " /><path fill="rgb(157,159,159)" stroke="rgb(157,159,159)" stroke-width="1" opacity="1" d="M 479.5 45 L 480.5 49 L 481.5 47 L 482 48.5 L 480.5 51 Q 478 49 479.5 45 Z " /><path fill="rgb(157,159,159)" stroke="rgb(157,159,159)" stroke-width="1" opacity="1" d="M 55.5 46 L 56 49.5 L 55 49.5 L 55.5 46 Z " /><path fill="rgb(157,159,159)" stroke="rgb(157,159,159)" stroke-width="1" opacity="1" d="M 178.5 46 L 179.5 48 L 178.5 46 Z " /><path fill="rgb(157,159,159)" stroke="rgb(157,159,159)" stroke-width="1" opacity="1" d="M 51.5 47 L 52 49.5 L 49 51.5 L 51.5 47 Z " /><path fill="rgb(157,159,159)" stroke="rgb(157,159,159)" stroke-width="1" opacity="1" d="M 308.5 48 L 309 50.5 L 308 50.5 L 308.5 48 Z " /><path fill="rgb(157,159,159)" stroke="rgb(157,159,159)" stroke-width="1" opacity="1" d="M 433.5 48 L 432.5 50 L 433.5 48 Z " /><path fill="rgb(157,159,159)" stroke="rgb(157,159,159)" stroke-width="1" opacity="1" d="M 116.5 49 L 114.5 52 L 116.5 49 Z " /><path fill="rgb(157,159,159)" stroke="rgb(157,159,159)" stroke-width="1" opacity="1" d="M 180.5 49 L 181.5 51 L 180.5 49 Z " /><path fill="rgb(157,159,159)" stroke="rgb(157,159,159)" stroke-width="1" opacity="1" d="M 119.5 52 L 118.5 54 L 119.5 52 Z " /><path fill="rgb(157,159,159)" stroke="rgb(157,159,159)" stroke-width="1" opacity="1" d="M 378.5 53 L 377.5 55 L 378.5 53 Z " /><path fill="rgb(157,159,159)" stroke="rgb(157,159,159)" stroke-width="1" opacity="1" d="M 382.5 55 L 381.5 57 L 382.5 55 Z " /><path fill="rgb(157,159,159)" stroke="rgb(157,159,159)" stroke-width="1" opacity="1" d="M 370.5 56 L 373 56.5 L 370.5 57 L 370.5 56 Z " /><path fill="rgb(157,159,159)" stroke="rgb(157,159,159)" stroke-width="1" opacity="1" d="M 379.5 58 L 378.5 60 L 379.5 58 Z " /><path fill="rgb(157,159,159)" stroke="rgb(157,159,159)" stroke-width="1" opacity="1" d="M 186 77 L 200.5 77 L 201 77.5 L 201 264 L 186.5 264 L 186 263.5 L 186 77 Z " /><path fill="rgb(5,4,5)" stroke="rgb(5,4,5)" stroke-width="1" opacity="1" d="M 25.5 5 L 494.5 5 Q 503.8 7.8 509 14.5 L 511 19.5 L 511 254.5 L 506 264 L 497.5 269 L 22.5 269 L 14 264 L 9 254.5 L 9 19.5 Q 10.5 13 15.5 10 L 25.5 5 Z M 26 10 L 21 12 L 14 21 L 14 72 L 15 72 L 506 72 L 506 21 L 504 17 Q 501 12 495 10 L 26 10 Z M 14 77 L 14 254 L 15 257 L 25 264 L 496 264 L 500 262 Q 505 260 506 254 L 506 77 L 14 77 Z " /><path fill="rgb(5,4,5)" stroke="rgb(5,4,5)" stroke-width="1" opacity="1" d="M 465.5 24 L 466 26 L 472 29.5 L 468 34.5 L 468 36.5 L 469 37.5 L 469 48.5 L 467.5 50 L 455.5 50 L 453.5 49 Q 452 51.5 446.5 50 L 444.5 49 L 443.5 50 L 434 50 L 433.5 48 L 431.5 50 L 385 50 L 381 58 L 377.5 60 L 374.5 60 L 367 56.5 L 369.5 56 L 372.5 57 Q 379 55.5 382 50.5 L 374 47.5 Q 374.5 39.8 378 36 L 381.5 35 L 387.5 45 L 433.5 45 L 434 42.5 L 436.5 39 L 437 41.5 L 436 45 L 444.5 45 L 446 43.5 L 447.5 40 L 448 42.5 L 447 45 L 452.5 45 L 453 43.5 L 452 41.5 L 454.5 38 L 455 45 L 466.5 45 L 467 41.5 L 463 27.5 L 465.5 24 Z M 379 39 Q 374 42 379 44 Q 383 46 382 42 L 379 39 Z " /><path fill="rgb(5,4,5)" stroke="rgb(5,4,5)" stroke-width="1" opacity="1" d="M 339.5 26 L 341 29.5 L 341 46.5 L 339.5 49 L 338 44.5 L 337 29.5 L 339.5 26 Z " /><path fill="rgb(5,4,5)" stroke="rgb(5,4,5)" stroke-width="1" opacity="1" d="M 480.5 26 L 482 29.5 L 482 46.5 L 480.5 49 L 479 44.5 L 478 29.5 L 480.5 26 Z " /><path fill="rgb(5,4,5)" stroke="rgb(5,4,5)" stroke-width="1" opacity="1" d="M 318.5 27 L 321 30.5 L 317.5 32 L 316 29.5 L 318.5 27 Z " /><path fill="rgb(5,4,5)" stroke="rgb(5,4,5)" stroke-width="1" opacity="1" d="M 43.5 28 Q 50.8 27.4 54 30 Q 55.8 34.5 50.5 33 Q 48.8 30.3 42.5 32 Q 39.3 32.8 40 37.5 Q 43.2 41.3 50.5 41 L 55 44.5 Q 56.3 51.8 52.5 54 Q 49.5 57 42.5 56 L 35 52.5 L 36 50 L 41.5 52 L 49.5 52 Q 52.5 51.5 52 47.5 L 51 45 L 40.5 43 L 37 39.5 L 36 34.5 L 40.5 29 L 43.5 28 Z " /><path fill="rgb(5,4,5)" stroke="rgb(5,4,5)" stroke-width="1" opacity="1" d="M 68 28 L 72 28.5 L 72 48.5 Q 73.3 53.2 80.5 52 L 83 51 L 84 48.5 L 84 28 L 88 28.5 L 88 48.5 L 83.5 55 L 75.5 56 L 70 52.5 L 68 47.5 L 68 28 Z " /><path fill="rgb(5,4,5)" stroke="rgb(5,4,5)" stroke-width="1" opacity="1" d="M 102 28 L 113.5 28 L 120 32.5 L 121 34.5 L 121 49.5 L 116.5 55 L 102 56 L 102 28 Z M 105 32 L 105 52 L 115 52 L 117 50 L 117 35 L 115 32 L 105 32 Z " /><path fill="rgb(5,4,5)" stroke="rgb(5,4,5)" stroke-width="1" opacity="1" d="M 142 28 Q 147.2 25.9 146 30.5 L 156 55.5 L 152 56 L 149.5 50 L 138.5 50 L 137 51.5 L 136 56 L 132 55.5 L 142 28 Z M 143 34 L 139 46 L 148 46 L 145 37 Q 146 33 143 34 Z " /><path fill="rgb(5,4,5)" stroke="rgb(5,4,5)" stroke-width="1" opacity="1" d="M 168 28 L 172 29.5 L 183 48 L 185 47.5 L 185 28.5 L 188 28 L 188 55.5 L 185.5 56 L 171.5 36 L 171 56 L 168 55.5 L 168 28 Z " /><path fill="rgb(5,4,5)" stroke="rgb(5,4,5)" stroke-width="1" opacity="1" d="M 353 32 L 358 35.5 Q 361.8 40.3 360 50 L 347 50 L 347 45 L 357.5 45 L 358 42.5 L 352 38 L 353 32 Z " /><path fill="rgb(5,4,5)" stroke="rgb(5,4,5)" stroke-width="1" opacity="1" d="M 328.5 34 Q 332.3 38.3 331 47.5 L 327.5 53 L 319.5 56 L 314.5 56 L 309 52.5 Q 308.1 44.6 311.5 41 L 312 42.5 L 311 47.5 Q 313.5 52.5 322.5 51 L 329 47.5 L 326 36.5 L 328.5 34 Z " /><path fill="rgb(254,255,254)" stroke="rgb(254,255,254)" stroke-width="1" opacity="1" d="M 466.5 23 L 469 26.5 L 466 24.5 L 466.5 23 Z " /><path fill="rgb(254,255,254)" stroke="rgb(254,255,254)" stroke-width="1" opacity="1" d="M 67.5 28 L 68 47.5 L 67 47.5 L 67.5 28 Z " /><path fill="rgb(254,255,254)" stroke="rgb(254,255,254)" stroke-width="1" opacity="1" d="M 72.5 28 L 73 46.5 L 72 46.5 L 72.5 28 Z " /><path fill="rgb(254,255,254)" stroke="rgb(254,255,254)" stroke-width="1" opacity="1" d="M 83.5 28 L 84 47.5 L 83 47.5 L 83.5 28 Z " /><path fill="rgb(254,255,254)" stroke="rgb(254,255,254)" stroke-width="1" opacity="1" d="M 88.5 28 L 89 48.5 L 88 48.5 L 88.5 28 Z " /><path fill="rgb(254,255,254)" stroke="rgb(254,255,254)" stroke-width="1" opacity="1" d="M 341.5 29 L 342 33.5 L 341 33.5 L 341.5 29 Z " /><path fill="rgb(254,255,254)" stroke="rgb(254,255,254)" stroke-width="1" opacity="1" d="M 462.5 29 L 463.5 31 L 462.5 29 Z " /><path fill="rgb(254,255,254)" stroke="rgb(254,255,254)" stroke-width="1" opacity="1" d="M 482.5 29 L 483 33.5 L 482 33.5 L 482.5 29 Z " /><path fill="rgb(254,255,254)" stroke="rgb(254,255,254)" stroke-width="1" opacity="1" d="M 321.5 30 L 319.5 33 L 321.5 30 Z " /><path fill="rgb(254,255,254)" stroke="rgb(254,255,254)" stroke-width="1" opacity="1" d="M 316.5 31 L 317.5 33 L 316.5 31 Z " /><path fill="rgb(254,255,254)" stroke="rgb(254,255,254)" stroke-width="1" opacity="1" d="M 54.5 32 L 53.5 34 L 54.5 32 Z " /><path fill="rgb(254,255,254)" stroke="rgb(254,255,254)" stroke-width="1" opacity="1" d="M 336.5 32 L 337 35.5 L 336 35.5 L 336.5 32 Z " /><path fill="rgb(254,255,254)" stroke="rgb(254,255,254)" stroke-width="1" opacity="1" d="M 355.5 32 L 358.5 36 L 355.5 32 Z " /><path fill="rgb(254,255,254)" stroke="rgb(254,255,254)" stroke-width="1" opacity="1" d="M 470.5 32 L 469.5 34 L 470.5 32 Z " /><path fill="rgb(254,255,254)" stroke="rgb(254,255,254)" stroke-width="1" opacity="1" d="M 477.5 32 L 478 35.5 L 477 35.5 L 477.5 32 Z " /><path fill="rgb(254,255,254)" stroke="rgb(254,255,254)" stroke-width="1" opacity="1" d="M 464.5 33 L 465 35.5 L 464 35.5 L 464.5 33 Z " /><path fill="rgb(254,255,254)" stroke="rgb(254,255,254)" stroke-width="1" opacity="1" d="M 35.5 34 L 36 37.5 L 35 37.5 L 35.5 34 Z " /><path fill="rgb(254,255,254)" stroke="rgb(254,255,254)" stroke-width="1" opacity="1" d="M 121.5 34 L 122 36.5 L 121 36.5 L 121.5 34 Z " /><path fill="rgb(254,255,254)" stroke="rgb(254,255,254)" stroke-width="1" opacity="1" d="M 116.5 35 L 117 48.5 L 116 48.5 L 116.5 35 Z " /><path fill="rgb(254,255,254)" stroke="rgb(254,255,254)" stroke-width="1" opacity="1" d="M 143.5 35 L 144.5 37 Q 141.7 37.7 143.5 35 Z " /><path fill="rgb(254,255,254)" stroke="rgb(254,255,254)" stroke-width="1" opacity="1" d="M 326.5 35 L 325.5 37 L 326.5 35 Z " /><path fill="rgb(254,255,254)" stroke="rgb(254,255,254)" stroke-width="1" opacity="1" d="M 378.5 35 L 377.5 37 L 378.5 35 Z " /><path fill="rgb(254,255,254)" stroke="rgb(254,255,254)" stroke-width="1" opacity="1" d="M 382.5 35 L 384.5 38 L 382.5 35 Z " /><path fill="rgb(254,255,254)" stroke="rgb(254,255,254)" stroke-width="1" opacity="1" d="M 351.5 36 L 353 38.5 L 351 37.5 L 351.5 36 Z " /><path fill="rgb(254,255,254)" stroke="rgb(254,255,254)" stroke-width="1" opacity="1" d="M 177.5 37 L 178.5 39 L 177.5 37 Z " /><path fill="rgb(254,255,254)" stroke="rgb(254,255,254)" stroke-width="1" opacity="1" d="M 454.5 37 L 453.5 39 L 454.5 37 Z " /><path fill="rgb(254,255,254)" stroke="rgb(254,255,254)" stroke-width="1" opacity="1" d="M 469.5 37 L 470 39.5 L 469 39.5 L 469.5 37 Z " /><path fill="rgb(254,255,254)" stroke="rgb(254,255,254)" stroke-width="1" opacity="1" d="M 465.5 38 L 466 40.5 L 465 40.5 L 465.5 38 Z " /><path fill="rgb(254,255,254)" stroke="rgb(254,255,254)" stroke-width="1" opacity="1" d="M 173.5 39 L 174.5 41 L 173.5 39 Z " /><path fill="rgb(254,255,254)" stroke="rgb(254,255,254)" stroke-width="1" opacity="1" d="M 354.5 39 L 355.5 41 L 354.5 39 Z " /><path fill="rgb(254,255,254)" stroke="rgb(254,255,254)" stroke-width="1" opacity="1" d="M 435.5 39 L 434.5 41 L 435.5 39 Z " /><path fill="rgb(254,255,254)" stroke="rgb(254,255,254)" stroke-width="1" opacity="1" d="M 179.5 40 L 180.5 42 L 179.5 40 Z " /><path fill="rgb(254,255,254)" stroke="rgb(254,255,254)" stroke-width="1" opacity="1" d="M 446.5 40 L 445.5 42 L 446.5 40 Z " /><path fill="rgb(254,255,254)" stroke="rgb(254,255,254)" stroke-width="1" opacity="1" d="M 52.5 41 L 56 45.5 L 55 45.5 L 52.5 41 Z " /><path fill="rgb(254,255,254)" stroke="rgb(254,255,254)" stroke-width="1" opacity="1" d="M 337.5 41 L 338 44.5 L 337 44.5 L 337.5 41 Z " /><path fill="rgb(254,255,254)" stroke="rgb(254,255,254)" stroke-width="1" opacity="1" d="M 478.5 41 L 479 44.5 L 478 44.5 L 478.5 41 Z " /><path fill="rgb(254,255,254)" stroke="rgb(254,255,254)" stroke-width="1" opacity="1" d="M 373.5 44 L 375 48.5 L 373 47.5 L 373.5 44 Z " /><path fill="rgb(254,255,254)" stroke="rgb(254,255,254)" stroke-width="1" opacity="1" d="M 49.5 45 L 50.5 47 L 49.5 45 Z " /><path fill="rgb(254,255,254)" stroke="rgb(254,255,254)" stroke-width="1" opacity="1" d="M 328.5 45 L 329 47.5 L 328 47.5 L 328.5 45 Z " /><path fill="rgb(254,255,254)" stroke="rgb(254,255,254)" stroke-width="1" opacity="1" d="M 346.5 45 L 347 47.5 L 346 47.5 L 346.5 45 Z " /><path fill="rgb(254,255,254)" stroke="rgb(254,255,254)" stroke-width="1" opacity="1" d="M 469.5 46 L 470 48.5 L 469 48.5 L 469.5 46 Z " /><path fill="rgb(254,255,254)" stroke="rgb(254,255,254)" stroke-width="1" opacity="1" d="M 121.5 47 L 122 49.5 L 121 49.5 L 121.5 47 Z " /><path fill="rgb(254,255,254)" stroke="rgb(254,255,254)" stroke-width="1" opacity="1" d="M 312.5 48 L 313.5 50 L 312.5 48 Z " /><path fill="rgb(254,255,254)" stroke="rgb(254,255,254)" stroke-width="1" opacity="1" d="M 36.5 49 L 35.5 51 L 36.5 49 Z " /><path fill="rgb(254,255,254)" stroke="rgb(254,255,254)" stroke-width="1" opacity="1" d="M 73.5 49 L 74.5 51 L 73.5 49 Z " /><path fill="rgb(254,255,254)" stroke="rgb(254,255,254)" stroke-width="1" opacity="1" d="M 82.5 49 L 81.5 51 L 82.5 49 Z " /><path fill="rgb(254,255,254)" stroke="rgb(254,255,254)" stroke-width="1" opacity="1" d="M 330.5 49 L 331 50.5 L 329 51.5 L 330.5 49 Z " /><path fill="rgb(254,255,254)" stroke="rgb(254,255,254)" stroke-width="1" opacity="1" d="M 381.5 50 L 379.5 53 L 381.5 50 Z " /><path fill="rgb(254,255,254)" stroke="rgb(254,255,254)" stroke-width="1" opacity="1" d="M 87.5 51 L 86.5 53 L 87.5 51 Z " /><path fill="rgb(254,255,254)" stroke="rgb(254,255,254)" stroke-width="1" opacity="1" d="M 308.5 51 L 311 54.5 L 308 52.5 L 308.5 51 Z " /><path fill="rgb(254,255,254)" stroke="rgb(254,255,254)" stroke-width="1" opacity="1" d="M 34.5 52 L 35.5 54 L 34.5 52 Z " /><path fill="rgb(254,255,254)" stroke="rgb(254,255,254)" stroke-width="1" opacity="1" d="M 69.5 52 L 71.5 55 L 69.5 52 Z " /><path fill="rgb(254,255,254)" stroke="rgb(254,255,254)" stroke-width="1" opacity="1" d="M 182.5 53 L 183.5 55 L 182.5 53 Z " /><path fill="rgb(254,255,254)" stroke="rgb(254,255,254)" stroke-width="1" opacity="1" d="M 384.5 53 L 383.5 55 L 384.5 53 Z " /><path fill="rgb(254,255,254)" stroke="rgb(254,255,254)" stroke-width="1" opacity="1" d="M 381.5 57 L 380.5 59 L 381.5 57 Z " /><path fill="rgb(254,255,254)" stroke="rgb(254,255,254)" stroke-width="1" opacity="1" d="M 135 241 L 138 242.5 L 135 243 L 135 241 Z " /><path fill="rgb(255,255,255)" stroke="rgb(255,255,255)" stroke-width="1" opacity="1" d="M 0 0 L 520 0 L 520 276 L 0 276 L 0 0 Z M 26 5 L 16 10 Q 11 13 9 20 L 9 255 L 14 264 L 23 269 L 498 269 L 506 264 L 511 255 L 511 20 L 509 15 Q 504 8 495 5 L 26 5 Z " /><path fill="rgb(255,255,255)" stroke="rgb(255,255,255)" stroke-width="1" opacity="1" d="M 25.5 10 L 494.5 10 Q 501 11.5 504 16.5 L 506 20.5 L 506 72 L 14.5 72 L 14 71.5 L 14 20.5 L 20.5 12 L 25.5 10 Z M 466 23 L 462 28 L 464 32 L 466 45 L 456 45 L 456 38 L 455 37 L 451 42 L 452 44 L 452 45 L 448 45 L 450 39 L 449 38 Q 445 38 445 44 Q 443 47 437 45 L 438 42 L 438 37 L 433 43 L 433 45 L 389 45 L 385 38 Q 384 34 379 35 Q 373 39 373 48 Q 375 51 381 51 L 374 56 Q 369 57 368 55 Q 364 54 365 57 L 373 60 L 381 59 L 386 50 L 469 50 L 470 49 L 470 38 L 469 37 L 469 35 L 473 30 L 467 25 Q 468 22 466 23 Z M 339 24 L 336 30 L 337 45 L 338 46 Q 337 52 340 51 L 342 47 L 342 30 L 341 29 Q 343 23 339 24 Z M 480 24 L 477 30 L 478 45 L 479 46 Q 478 52 481 51 L 483 47 L 483 30 L 482 29 Q 484 23 480 24 Z M 318 27 L 315 31 Q 316 34 320 33 L 322 30 Q 322 26 318 27 Z M 42 28 L 37 30 L 35 35 L 37 42 L 49 45 Q 52 46 51 50 L 48 52 L 43 52 L 37 49 L 34 53 L 40 56 L 51 56 L 53 55 Q 57 53 56 45 L 53 41 L 43 39 Q 40 38 41 35 L 45 32 L 49 32 L 54 34 L 55 31 Q 51 26 42 28 Z M 67 28 L 67 48 L 69 53 L 74 56 Q 81 58 85 55 L 89 49 L 89 28 L 84 28 L 83 29 L 83 49 L 79 52 L 73 49 L 73 29 L 73 28 L 67 28 Z M 101 28 L 101 56 L 116 56 L 118 55 L 122 50 L 122 35 L 121 33 L 116 28 L 101 28 Z M 141 28 L 131 56 L 137 56 L 138 52 L 140 50 L 149 50 L 151 56 L 157 56 L 147 31 L 147 28 L 141 28 Z M 167 28 L 167 56 L 172 56 L 173 38 L 182 54 Q 184 57 189 56 L 189 29 L 184 28 L 184 46 L 173 30 Q 172 27 167 28 Z M 352 32 L 351 38 L 357 43 L 357 45 L 346 45 L 346 50 L 361 50 Q 363 40 359 36 Q 358 31 352 32 Z M 327 33 L 325 37 L 328 48 L 321 51 L 315 50 L 312 48 Q 311 42 314 40 L 311 39 L 308 47 L 308 53 L 313 56 Q 322 57 328 54 L 332 48 Q 333 39 330 35 L 327 33 Z " /><path fill="rgb(255,255,255)" stroke="rgb(255,255,255)" stroke-width="1" opacity="1" d="M 106 32 Q 113.2 30.5 116 34.5 L 116 49.5 L 114.5 51 L 106 52 L 106 32 Z " /><path fill="rgb(255,255,255)" stroke="rgb(255,255,255)" stroke-width="1" opacity="1" d="M 143 37 Q 146 35.8 145 39.5 L 147 46 L 140 45.5 L 143 37 Z " /><path fill="rgb(255,255,255)" stroke="rgb(255,255,255)" stroke-width="1" opacity="1" d="M 378.5 40 L 381 41.5 Q 382.1 44.8 379.5 44 Q 375 42 378.5 40 Z " /><path fill="rgb(255,255,255)" stroke="rgb(255,255,255)" stroke-width="1" opacity="1" d="M 14 77 L 186 77 L 186 264 L 24.5 264 L 15 256.5 L 14 253.5 L 14 77 Z M 135 241 L 135 244 Q 139 245 138 243 L 135 241 Z " /><path fill="rgb(255,255,255)" stroke="rgb(255,255,255)" stroke-width="1" opacity="1" d="M 201 77 L 506 77 L 506 253.5 Q 504.6 259.6 499.5 262 L 495.5 264 L 201 264 L 201 77 Z " /></svg>